<svg width="70" height="70" viewBox="0 0 70 70" fill="none" xmlns="http://www.w3.org/2000/svg">
<path fill-rule="evenodd" clip-rule="evenodd" d="M34.196 3.3508C33.8429 3.6986 33.84 3.72361 33.84 6.42943C33.84 9.13525 33.8429 9.16026 34.196 9.50806C34.4203 9.72925 34.7175 9.85886 35 9.85886C35.2825 9.85886 35.5797 9.72925 35.804 9.50806C36.1571 9.16026 36.16 9.13525 36.16 6.42943C36.16 3.72361 36.1571 3.6986 35.804 3.3508C35.5797 3.1296 35.2825 3 35 3C34.7175 3 34.4203 3.1296 34.196 3.3508ZM14.5438 11.4197C13.7997 12.153 13.9614 12.4817 16.1168 14.6149C17.1319 15.6196 18.1105 16.4788 18.2915 16.5244C19.078 16.7223 19.9246 15.8879 19.7238 15.1129C19.6776 14.9346 18.8057 13.9702 17.7862 12.9698C15.6215 10.8457 15.288 10.6864 14.5438 11.4197ZM54.2125 11.14C53.6879 11.3568 50.225 14.9336 50.225 15.2586C50.225 16.0604 50.9829 16.707 51.7085 16.5244C51.8895 16.4788 52.8681 15.6196 53.8832 14.6149C56.027 12.4931 56.1981 12.1509 55.4731 11.4364C55.0246 10.9944 54.7315 10.9256 54.2125 11.14ZM32.97 12.2343C28.2447 12.8272 24.2865 14.7001 21.0796 17.8604C18.2776 20.6217 16.4098 24.0787 15.6119 27.9802C15.254 29.7307 15.2641 33.4663 15.6315 35.2223C16.8021 40.8175 20.1672 45.5015 25.0478 48.3292L25.72 48.7187V54.6568C25.72 61.2617 25.7175 61.2424 26.6715 61.9602C27.1841 62.3459 27.3188 62.3751 28.7894 62.4203L30.36 62.4687V63.8182C30.36 65.417 30.5504 65.96 31.3116 66.5328L31.859 66.9446L34.804 66.9884C38.1239 67.0379 38.4629 66.9646 39.1769 66.0431C39.5353 65.5804 39.5716 65.4126 39.6162 64.0036L39.6649 62.468L41.2231 62.42C42.653 62.376 42.8232 62.3403 43.2927 61.987C44.2873 61.2389 44.28 61.2922 44.28 54.6632V48.7124L44.7317 48.4689C45.8026 47.8919 47.7146 46.4503 48.7827 45.4146C52.803 41.5161 54.9706 36.0856 54.6752 30.6523C54.4096 25.7696 52.3881 21.2749 48.9258 17.869C45.2361 14.2397 40.7914 12.3492 35.6525 12.2237C34.4562 12.1946 33.2491 12.1993 32.97 12.2343ZM32.2138 14.6531C29.6772 15.0423 26.7414 16.2702 24.629 17.8254C17.8382 22.8255 15.6753 31.8552 19.4859 39.2967C21.0638 42.378 23.961 45.2683 26.9835 46.7764C27.3994 46.9837 27.8071 47.2779 27.8898 47.4301C27.9724 47.5822 28.04 48.4504 28.04 49.3593V51.012H30.94H33.84V48.4019V45.7917L32.1821 44.1626C31.2703 43.2666 30.4835 42.3736 30.4338 42.1782C30.2294 41.3756 31.0505 40.5664 31.8355 40.7966C32.0208 40.8509 32.8086 41.5146 33.5862 42.2715L35 43.6476L36.4137 42.2715C37.1914 41.5146 37.9792 40.8509 38.1645 40.7966C38.9495 40.5664 39.7706 41.3756 39.5662 42.1782C39.5165 42.3736 38.7297 43.2666 37.8179 44.1626L36.16 45.7917V48.4019V51.012H39.06H41.96V49.3593C41.96 48.4504 42.0241 47.5887 42.1022 47.4447C42.1805 47.3005 42.7286 46.9208 43.3202 46.6009C47.1861 44.51 50.1798 40.9632 51.5194 36.8865C52.1577 34.9441 52.3275 33.8287 52.3275 31.5786C52.3275 30.3883 52.242 29.081 52.1264 28.5064C50.2647 19.2441 41.5962 13.2133 32.2138 14.6531ZM6.35598 30.7862C6.13152 31.0073 6 31.3002 6 31.5786C6 31.8569 6.13152 32.1499 6.35598 32.3709C6.70891 32.7189 6.73428 32.7217 9.48 32.7217C12.2257 32.7217 12.2511 32.7189 12.604 32.3709C12.8285 32.1499 12.96 31.8569 12.96 31.5786C12.96 31.3002 12.8285 31.0073 12.604 30.7862C12.2511 30.4383 12.2257 30.4354 9.48 30.4354C6.73428 30.4354 6.70891 30.4383 6.35598 30.7862ZM57.396 30.7862C57.1715 31.0073 57.04 31.3002 57.04 31.5786C57.04 31.8569 57.1715 32.1499 57.396 32.3709C57.7489 32.7189 57.7743 32.7217 60.52 32.7217C63.2657 32.7217 63.2911 32.7189 63.644 32.3709C63.8685 32.1499 64 31.8569 64 31.5786C64 31.3002 63.8685 31.0073 63.644 30.7862C63.2911 30.4383 63.2657 30.4354 60.52 30.4354C57.7743 30.4354 57.7489 30.4383 57.396 30.7862ZM17.9625 46.8535C17.7232 47.0022 16.7948 47.8539 15.8994 48.7463C13.9773 50.6619 13.8154 51.0196 14.5438 51.7375C15.2781 52.4611 15.6309 52.301 17.6464 50.3301C19.9339 48.0933 20.1105 47.7483 19.3512 47C18.857 46.513 18.5611 46.4817 17.9625 46.8535ZM50.6488 47C50.1737 47.4683 50.1323 47.7083 50.4303 48.2685C50.7144 48.8026 53.9938 51.9535 54.3914 52.0744C55.1121 52.2936 56.0205 51.3984 55.7981 50.6882C55.6754 50.2964 52.478 47.0646 51.936 46.7847C51.3676 46.491 51.124 46.5317 50.6488 47ZM28.04 54.4414V55.5846H35H41.96V54.4414V53.2983H35H28.04V54.4414ZM28.04 59.014V60.1572H35H41.96V59.014V57.8709H35H28.04V59.014ZM32.68 63.5866V64.7297H35H37.32V63.5866V62.4434H35H32.68V63.5866Z" fill="#FFB703"/>
</svg>
