<svg width="70" height="70" viewBox="0 0 70 70" fill="none" xmlns="http://www.w3.org/2000/svg">
<path fill-rule="evenodd" clip-rule="evenodd" d="M13.1212 2.28588C12.7785 2.56241 8.06759 8.1842 7.65124 8.81336C7.19671 9.50028 7.50594 10.5392 8.26115 10.863C8.50004 10.9653 9.01075 11.0491 9.39608 11.0491H10.0965L10.1343 17.304L10.172 23.5589L10.4693 23.9866C10.9959 24.7441 11.2434 24.8033 13.8809 24.8033C16.5499 24.8033 16.928 24.7118 17.3837 23.9553C17.6323 23.5425 17.6411 23.3155 17.6411 17.3028V11.0778L18.5987 11.0282C19.4632 10.9834 19.5939 10.9399 19.9433 10.5816C20.4888 10.0218 20.5597 9.4137 20.1509 8.79777C19.619 7.99662 14.835 2.28339 14.5776 2.14205C14.1784 1.92277 13.4864 1.99115 13.1212 2.28588ZM34.9064 2.20296C34.6064 2.29911 33.7492 2.83291 33.0016 3.3891C32.2541 3.94529 31.4654 4.47476 31.2491 4.56554C31.0327 4.65632 30.074 4.78836 29.1186 4.85883C27.7153 4.96245 27.2478 5.04969 26.6868 5.31325C25.1894 6.01654 24.6271 6.86956 24.0311 9.34217C23.8155 10.2369 23.5458 11.1195 23.4318 11.3037C23.3179 11.4878 22.6359 12.2281 21.9164 12.9485C20.2963 14.5706 20.0076 15.195 20.0994 16.8783C20.1523 17.8476 20.2164 18.0491 20.9543 19.5636L21.7522 21.201L21.6456 22.642C21.4474 25.3184 21.4915 26.0872 21.8902 26.9203C22.3306 27.8402 23.0116 28.4832 24.1245 29.0297C24.5965 29.2614 25.0015 29.4611 25.0247 29.4736C25.0478 29.486 24.1428 31.5355 23.0138 34.0279C20.7981 38.9188 20.6999 39.245 21.2972 39.7269C21.7318 40.0777 21.8469 40.073 24.4291 39.5979C25.6265 39.3775 26.6209 39.2154 26.6389 39.2376C26.6569 39.2598 27.171 40.1622 27.7811 41.2429C28.9523 43.3171 29.3382 43.7972 29.8343 43.7972C30.4493 43.7972 30.7651 43.2587 32.8302 38.689L34.8721 34.1705L35.5143 34.0036C36.053 33.8635 36.2901 33.8684 36.9846 34.0337C38.6783 34.4366 38.468 34.165 40.0913 38.046C40.9912 40.1973 41.6574 41.6163 41.8538 41.7996C42.2314 42.1521 42.7976 42.1809 43.1456 41.8651C43.2845 41.7391 43.9304 40.7516 44.581 39.6709C45.2315 38.5903 45.7795 37.6871 45.7987 37.6639C45.818 37.6406 46.8172 37.8322 48.0193 38.0896C49.2214 38.3469 50.3659 38.5575 50.5626 38.5575C51.0182 38.5575 51.5187 38.0257 51.5169 37.5434C51.5161 37.3447 50.7821 35.4432 49.8856 33.3178C48.989 31.1925 48.2293 29.386 48.1972 29.3034C48.1651 29.2208 48.4052 29.0168 48.7306 28.8501C49.4595 28.4766 50.2601 27.6047 50.6213 26.7913C50.9273 26.1016 50.9725 24.9685 50.7893 22.5765L50.6839 21.201L51.4919 19.5636L52.2998 17.9262L52.3028 16.6163C52.3053 15.4038 52.2771 15.2537 51.9236 14.5988C51.6914 14.1686 51.1018 13.4752 50.42 12.8304C49.8031 12.2469 49.1894 11.5928 49.0561 11.3766C48.9229 11.1605 48.6327 10.2468 48.4114 9.34624C47.7998 6.85777 47.2446 6.01549 45.7547 5.3156C45.2075 5.0586 44.7324 4.96782 43.4506 4.87521C42.5626 4.81102 41.6349 4.70217 41.3891 4.63339C41.1434 4.56449 40.329 4.0417 39.5796 3.47162C38.8301 2.90155 37.9436 2.33959 37.6098 2.22288C36.8858 1.9698 35.6624 1.96089 34.9064 2.20296ZM57.5471 2.43639C56.7158 3.24737 52.3406 8.62774 52.1566 9.06513C51.9169 9.6352 52.0309 10.1325 52.5093 10.6027C52.8476 10.9352 53.0036 10.9849 53.8438 11.0284L54.7953 11.0778V17.3028C54.7953 23.3155 54.8041 23.5425 55.0527 23.9553C55.5094 24.7133 55.8841 24.8033 58.5811 24.8028C60.7412 24.8024 61.0294 24.7762 61.3957 24.5471C62.2949 23.9846 62.2603 24.2605 62.3011 17.3099L62.3377 11.0491H63.0393C63.4251 11.0491 63.9364 10.9653 64.1752 10.863C64.9255 10.5414 65.2428 9.49085 64.7926 8.81873C64.3734 8.19285 59.6338 2.54289 59.3059 2.27828C58.7823 1.8557 58.0774 1.9191 57.5471 2.43639ZM35.608 4.23282C35.4128 4.29609 34.7521 4.72981 34.1397 5.19653C32.0998 6.75115 31.9445 6.8118 29.5396 6.9927C27.713 7.13011 27.3186 7.26045 26.7941 7.89995C26.4229 8.3524 26.4307 8.33039 26.0606 10.0012C25.623 11.9764 25.2386 12.6708 23.8193 14.0489C22.5367 15.2942 22.1098 15.9374 22.1098 16.6246C22.1098 16.8577 22.4126 17.669 22.8086 18.4968C23.8852 20.7474 23.9666 21.1357 23.7735 23.0953C23.5587 25.2737 23.5752 25.644 23.9112 26.2018C24.1342 26.572 24.4354 26.7879 25.2917 27.1914C28.2063 28.565 28.2535 28.603 29.6169 30.6667C31.083 32.8859 31.3534 32.9812 33.9838 32.2044C34.891 31.9365 35.8198 31.7459 36.2182 31.7459C36.6166 31.7459 37.5454 31.9365 38.4526 32.2044C41.074 32.9786 41.3479 32.8798 42.8537 30.6185C44.07 28.7918 44.5526 28.375 46.3926 27.5618C48.0191 26.843 48.2147 26.7173 48.5354 26.1849C48.8648 25.6381 48.8833 25.2368 48.6749 23.164C48.4696 21.1218 48.5422 20.7661 49.6278 18.4968C50.0238 17.669 50.3266 16.8577 50.3266 16.6246C50.3266 15.938 49.9 15.2945 48.6222 14.0538C47.186 12.6593 46.9023 12.1429 46.385 9.98246C45.7652 7.39301 45.5299 7.19128 42.8954 6.99178C41.9616 6.92104 40.9835 6.80053 40.7218 6.7239C40.2783 6.59422 39.3833 6.01576 37.6865 4.7619C36.9389 4.20964 36.2331 4.02991 35.608 4.23282ZM12.099 6.72639L10.3565 8.82227H10.9443C11.4239 8.82227 11.6011 8.89287 11.9055 9.20516L12.2787 9.58805V16.1477V22.7074H13.9385H15.5983V16.1171C15.5983 9.67765 15.6041 9.52006 15.8572 9.24157C16.118 8.95418 16.3733 8.85855 17.0551 8.79266C17.4183 8.75756 17.3881 8.70987 15.7257 6.69364C14.7902 5.55886 13.9835 4.63051 13.9331 4.63051C13.8828 4.63051 13.0574 5.57366 12.099 6.72639ZM56.7227 6.69364C55.0583 8.70359 55.0238 8.75769 55.3836 8.79266C56.0636 8.85881 56.3186 8.95457 56.5792 9.24157C56.8323 9.52006 56.8381 9.67765 56.8381 16.1171V22.7074H58.4979H60.1577V16.1652V9.62289L60.4616 9.26044C60.6939 8.98339 60.9153 8.88134 61.4017 8.82737L62.0381 8.75677L60.3237 6.69364C59.381 5.55886 58.5694 4.63051 58.5203 4.63051C58.4712 4.63051 57.6624 5.55886 56.7227 6.69364ZM34.2392 8.36969C30.8366 9.11399 28.0212 11.6199 26.8322 14.9624C25.9004 17.5819 26.0551 20.3417 27.2772 22.9039C28.9881 26.4908 32.3191 28.6206 36.2182 28.6206C43.1501 28.6206 47.9287 21.6796 45.615 14.9717C45.144 13.606 44.5679 12.6535 43.4958 11.4678C41.1203 8.8406 37.5498 7.64556 34.2392 8.36969ZM35.3577 10.4154C32.0848 10.7497 29.3135 13.2739 28.5499 16.6163C28.252 17.9199 28.3529 19.8538 28.7803 21.0362C29.2239 22.2629 29.8371 23.2583 30.6798 24.1188C34.4893 28.0091 40.7984 26.9559 43.2509 22.0203C44.3947 19.7186 44.3327 16.7616 43.0929 14.4682C42.8279 13.978 42.2333 13.2063 41.7201 12.6865C39.9801 10.9246 37.8426 10.1615 35.3577 10.4154ZM37.2735 17.1253L34.541 19.6649L33.5852 18.7063C33.0595 18.179 32.4641 17.7051 32.2621 17.653C31.499 17.4565 30.7507 18.3051 31.0447 19.0334C31.2509 19.5441 33.8518 22.1444 34.2622 22.2502C34.4472 22.2978 34.7199 22.2701 34.8684 22.1886C35.2679 21.9692 41.1718 16.4337 41.3528 16.1088C41.5874 15.6874 41.5494 15.4317 41.1863 14.989C40.9391 14.6876 40.7486 14.5859 40.4308 14.5859C40.058 14.5859 39.6711 14.897 37.2735 17.1253ZM45.7113 30.3384C45.5253 30.5002 44.97 31.2567 44.4773 32.0196C43.3521 33.7619 42.7527 34.2984 41.5023 34.6825L41.041 34.8242L41.8215 36.6896C42.2508 37.7155 42.6496 38.5393 42.7075 38.5202C42.7656 38.5011 43.2014 37.8385 43.676 37.0478C44.1871 36.1964 44.6703 35.5442 44.8611 35.4483C45.1305 35.3127 45.4578 35.3427 46.8634 35.6315C47.7874 35.8213 48.5701 35.9496 48.6025 35.9163C48.6765 35.8405 46.2322 30.0428 46.1267 30.0437C46.0842 30.0441 45.8972 30.1766 45.7113 30.3384ZM25.3465 34.0071C24.4932 35.8975 23.8085 37.4588 23.8248 37.4768C23.8413 37.4948 24.482 37.3925 25.2485 37.2496C26.816 36.9572 27.3815 36.9265 27.7253 37.1153C27.8552 37.1867 28.3476 37.9272 28.8197 38.7611C29.2916 39.5948 29.7232 40.2291 29.7789 40.1704C29.8347 40.1119 30.4003 38.9145 31.036 37.5096L32.1918 34.9552L31.4321 34.7963C29.8669 34.4687 29.219 33.9471 27.9615 32.0013C27.4517 31.2125 27.0037 30.5678 26.9662 30.5686C26.9285 30.5695 26.1996 32.1169 25.3465 34.0071ZM21.7268 44.5112C20.603 44.8073 19.7069 45.2684 16.1 47.4072C14.2308 48.5155 12.6207 49.4511 12.522 49.4862C12.4075 49.5268 12.1761 49.2762 11.883 48.7938C11.3337 47.8899 10.7354 47.5313 9.78894 47.5386C9.24095 47.5428 8.93363 47.6691 7.61842 48.4308C5.90742 49.4219 5.32968 49.9186 5.1162 50.5821C4.79483 51.581 4.90042 51.8217 8.64802 58.6313C12.9907 66.5225 12.9044 66.3801 13.5455 66.7156C14.4811 67.2053 15.0754 67.0971 16.8112 66.1205C18.8031 65 19.2172 64.6043 19.4351 63.6132C19.5618 63.0371 19.3817 62.2883 18.9262 61.4957L18.5495 60.8402L19.1486 60.4948L19.7478 60.1492L23.8973 61.2917C32.3604 63.6218 31.7153 63.475 33.2178 63.4133C34.2621 63.3705 34.7292 63.2868 35.3312 63.0349C36.5668 62.5177 52.7346 52.2606 53.2874 51.6431C53.8722 50.9899 54.1869 50.0496 54.1808 48.9735C54.1679 46.6679 52.3817 45.0839 50.0138 45.2781C48.3043 45.4182 47.6324 45.743 41.6412 49.3246C37.1695 51.9977 36.5405 52.3585 36.4722 52.2884C36.4493 52.2649 36.4928 51.9672 36.5688 51.6265C36.8494 50.3679 36.2666 48.9981 35.0428 48.0404C34.6351 47.7215 34.1701 47.5442 33.0245 47.2709C31.4709 46.9002 29.4833 46.263 26.2794 45.1086C24.1328 44.3351 22.9729 44.183 21.7268 44.5112ZM21.7268 46.788C21.3406 46.9195 20.8235 47.1344 20.5777 47.2656C20.2142 47.4595 13.5861 51.3684 13.4527 51.4675C13.4313 51.4834 14.3403 53.1768 15.4726 55.2305L17.5314 58.9645L18.3823 58.4545C18.8502 58.1739 19.3843 57.9444 19.5692 57.9444C19.7539 57.9444 22.5766 58.6798 25.8416 59.5785C29.1067 60.4772 32.0959 61.251 32.4844 61.2978C33.2567 61.3909 34.2771 61.1981 35.0053 60.8215C35.251 60.6943 39.1005 58.2839 43.5597 55.4651C52.0893 50.073 52.1141 50.0547 52.1141 49.1329C52.1141 48.5858 51.7954 47.9072 51.4196 47.6547C50.9494 47.3386 49.4942 47.4525 48.4675 47.8859C48.0419 48.0655 45.495 49.5267 42.8076 51.1329C40.1203 52.7393 37.5671 54.2036 37.1338 54.3871C36.0289 54.855 34.1487 54.9257 32.4345 54.5635C29.9989 54.0491 26.2761 52.9278 25.9721 52.6172C25.3877 52.02 25.8343 50.8708 26.6508 50.8708C26.8373 50.8708 28.1362 51.1934 29.5371 51.5878C32.5136 52.4257 33.1874 52.5416 33.7327 52.3099C34.532 51.9702 34.7528 50.7737 34.1434 50.0854C33.8379 49.7402 33.5354 49.6224 31.8133 49.1788C30.7249 48.8984 28.5703 48.2113 27.0254 47.6518C23.8265 46.4934 22.9918 46.3573 21.7268 46.788ZM8.44833 50.4186C7.78121 50.8107 7.21701 51.2194 7.19441 51.3269C7.15623 51.5095 14.1639 64.3685 14.4934 64.7201C14.6112 64.846 14.9317 64.7168 15.9745 64.1234C16.7065 63.7069 17.325 63.3058 17.3489 63.2321C17.4183 63.0184 10.0503 49.761 9.84601 49.7321C9.74438 49.7177 9.11544 50.0267 8.44833 50.4186ZM8.80672 51.493C8.70113 51.619 8.57779 51.8291 8.53247 51.9597C8.42267 52.2767 8.76242 52.9266 9.0945 53.0347C10.035 53.3409 10.7307 52.1831 10.035 51.4694C9.76507 51.1925 9.04675 51.2063 8.80672 51.493Z" fill="#FFB703"/>
</svg>
