<svg width="70" height="70" viewBox="0 0 70 70" fill="none" xmlns="http://www.w3.org/2000/svg">
<path fill-rule="evenodd" clip-rule="evenodd" d="M42.315 3.2268C41.0489 3.67151 40.4283 4.15038 39.0427 5.75156C38.5572 6.31246 38.0447 6.75743 37.6675 6.9455C37.1042 7.22627 36.9235 7.24557 34.8158 7.24887L32.5656 7.25243L31.753 7.64431C30.213 8.38706 28.9785 9.8577 28.564 11.443C28.4053 12.0501 28.3817 12.5441 28.4481 13.8743C28.576 16.4392 28.5287 16.5369 25.9917 18.9552C24.8767 20.0181 24.2521 21.4972 24.2521 23.0749V23.7962L23.2208 23.7345C21.8619 23.6534 20.6079 23.9274 19.2516 24.6019C17.2749 25.5851 15.6248 27.6521 15.057 29.8562C14.794 30.8778 14.7953 32.814 15.06 33.8461C15.6456 36.1302 17.2221 38.0907 19.3453 39.1753C20.5497 39.7904 21.5722 39.9857 23.252 39.9213C24.472 39.8745 24.8318 39.8092 25.6285 39.4898C26.8463 39.0018 27.9392 38.2401 28.7695 37.3009L29.4348 36.5482L30.2085 37.2833C31.595 38.6008 33.0925 39.0684 35.0696 38.801C37.0014 38.54 38.0028 38.9646 39.3467 40.6147C40.7446 42.3309 42.0781 43.0194 44.0043 43.0194C45.9305 43.0194 47.2641 42.3309 48.662 40.6147C50.0059 38.9646 51.0072 38.54 52.9391 38.801C54.9182 39.0686 56.4136 38.6009 57.8041 37.2795C59.2843 35.8731 59.6854 34.6787 59.5588 32.055L59.4748 30.3173L59.852 29.4985C60.1631 28.8233 60.4039 28.533 61.2257 27.8423C62.3285 26.9157 62.6937 26.4807 63.1607 25.5386C64.2566 23.3278 63.7906 20.6459 62.017 18.9552C59.4799 16.5369 59.4327 16.4392 59.5606 13.8743C59.6269 12.5441 59.6033 12.0501 59.4447 11.443C59.0301 9.8577 57.7956 8.38706 56.2557 7.64431L55.4431 7.25243L53.1928 7.25014C50.9919 7.24798 50.9285 7.24049 50.2975 6.90461C49.9021 6.69419 49.3698 6.23081 48.9224 5.7075C47.5518 4.10492 47.0055 3.6804 45.7683 3.25702C44.8029 2.92673 43.2091 2.91276 42.315 3.2268ZM43.096 4.90697C42.0532 5.17288 41.3474 5.73188 40.3237 7.10207C39.8075 7.79301 38.74 8.52751 37.7809 8.85171C37.0311 9.10517 36.801 9.12308 35.2542 9.04803C33.3041 8.95342 32.6584 9.08168 31.7803 9.73757C30.6803 10.5594 30.1899 11.6626 30.2623 13.1526C30.2879 13.679 30.3026 14.5669 30.2947 15.1256C30.2697 16.921 29.5977 18.1943 27.9134 19.6379C26.6086 20.7561 26.232 21.3927 26.1552 22.6091C26.0582 24.1437 26.1365 24.3505 27.0251 24.9076C28.6451 25.9233 29.9484 27.6479 30.5248 29.5387C30.7601 30.3103 30.8125 30.7563 30.8011 31.888C30.793 32.7013 30.709 33.5646 30.6 33.9547C30.4154 34.615 30.4176 34.6322 30.7494 35.1636C31.137 35.7846 31.6917 36.2889 32.426 36.6879C32.9017 36.9463 33.0871 36.9651 34.8777 36.9357C37.6675 36.8901 38.7376 37.2595 40.0861 38.7336C40.4753 39.1592 41.014 39.7471 41.2833 40.0402C42.0505 40.8756 42.7379 41.1581 44.0043 41.1581C45.2707 41.1581 45.9582 40.8756 46.7254 40.0402C46.9947 39.7471 47.5333 39.1592 47.9225 38.7336C49.2723 37.258 50.3545 36.8846 53.1385 36.9336C54.8093 36.9629 55.1306 36.936 55.5337 36.7323C56.7214 36.1325 57.6985 34.7951 57.7741 33.6658C57.7929 33.3864 57.7655 32.615 57.7135 31.9515C57.5228 29.5239 57.9989 28.3859 59.9922 26.5041C61.7083 24.8841 61.9346 24.4339 61.8574 22.794C61.7915 21.3939 61.468 20.8146 60.0952 19.6379C58.4074 18.1914 57.736 16.9169 57.7179 15.1256C57.7121 14.5669 57.7255 13.624 57.7475 13.0304C57.7816 12.1088 57.7444 11.8581 57.4933 11.316C57.1222 10.5146 56.2899 9.66239 55.5301 9.30581C54.9922 9.05336 54.7757 9.0333 52.9428 9.0672C51.1883 9.09971 50.8505 9.07203 50.1925 8.84231C49.1633 8.48306 48.2387 7.80774 47.5132 6.88569C46.6711 5.81518 46.2866 5.46711 45.6099 5.16323C44.9258 4.85592 43.7612 4.73719 43.096 4.90697ZM42.7416 9.99345C39.9529 10.2327 36.9735 11.6593 34.9323 13.7327C28.6291 20.1354 30.4066 30.8482 38.4302 34.813C39.0649 35.1267 40.1428 35.5334 40.8254 35.7169C41.9103 36.0087 42.3105 36.0506 44.0043 36.0506C45.6981 36.0506 46.0983 36.0087 47.1833 35.7169C52.221 34.3626 55.9322 30.1827 56.7606 24.9302C56.968 23.6159 56.8515 21.1422 56.5221 19.8654C55.0699 14.2358 50.3469 10.278 44.6919 9.9518C44.2106 9.92399 43.333 9.94278 42.7416 9.99345ZM42.2116 11.8849C37.7621 12.7064 34.2959 15.9795 33.2266 20.3691C32.8485 21.9216 32.855 24.2263 33.2416 25.7174C33.5517 26.9129 34.0716 28.1496 34.6472 29.0606L35.0317 29.6693L35.3984 28.8817C36.3515 26.8344 37.971 25.1917 39.9948 24.2195L40.7422 23.8603L40.3646 23.4931C40.1569 23.2911 39.7855 22.7117 39.5391 22.2057C37.6036 18.229 41.3892 13.8148 45.5465 15.2011C48.4346 16.1641 49.8081 19.4555 48.4696 22.2057C48.2232 22.7117 47.8518 23.2911 47.6441 23.4931L47.2664 23.8603L48.0139 24.2195C50.0376 25.1917 51.6572 26.8344 52.6103 28.8817L52.977 29.6693L53.3615 29.0606C55.2303 26.1023 55.5947 22.1811 54.3101 18.8515C53.3629 16.3962 51.3091 14.1372 48.917 12.9195C47.522 12.2094 46.1277 11.8713 44.3794 11.8195C43.5199 11.7941 42.5444 11.8235 42.2116 11.8849ZM43.3621 16.7967C43.1807 16.8283 42.7311 17.0369 42.3628 17.2606C41.6038 17.7213 40.9646 18.6582 40.8312 19.5053C40.4994 21.6132 42.4307 23.5749 44.5058 23.2379C46.2084 22.9613 47.5161 21.0638 47.1487 19.4027C46.76 17.6457 45.0895 16.496 43.3621 16.7967ZM43.2542 25.1686C41.1264 25.529 39.8142 26.1617 38.5769 27.4245C37.6552 28.365 36.9079 29.6096 36.6315 30.6641C36.4975 31.1753 36.5086 31.2424 36.7762 31.5336C37.6623 32.4976 39.9836 33.6685 41.7632 34.0487C42.8952 34.2906 45.1135 34.2906 46.2455 34.0487C48.025 33.6685 50.3464 32.4976 51.2325 31.5336C51.5 31.2424 51.5112 31.1753 51.3771 30.6641C50.8893 28.8028 49.2762 26.8706 47.4921 26.0104C46.9146 25.7319 46.1889 25.4443 45.8795 25.3711C45.2046 25.2117 43.6897 25.0948 43.2542 25.1686ZM22.0019 25.6062C19.9919 25.8713 18.1225 27.2462 17.2587 29.0943C16.0774 31.6218 16.5794 34.4507 18.5505 36.3733C20.5343 38.3083 23.2429 38.7056 25.7219 37.4248C27.1806 36.6712 28.2845 35.3237 28.7679 33.7068C28.9817 32.992 29.0217 32.5844 28.9828 31.5181C28.9377 30.2793 28.9063 30.1485 28.4082 29.1277C27.1892 26.6287 24.6852 25.2523 22.0019 25.6062ZM23.6073 30.642C22.5209 31.7378 21.6136 32.6091 21.5908 32.5785C21.568 32.5479 21.3036 32.0943 21.0032 31.5705C20.3977 30.5151 20.1997 30.3107 19.7773 30.3047C19.4153 30.2996 18.8765 30.8356 18.8765 31.2009C18.8765 31.4944 20.3703 34.2301 20.7946 34.7134C20.9521 34.893 21.1887 34.9992 21.4311 34.9992C21.7656 34.9992 22.1434 34.667 24.2845 32.49C26.4526 30.2857 26.7524 29.932 26.7524 29.5785C26.7524 29.1294 26.2802 28.6498 25.8381 28.6498C25.6754 28.6498 24.8643 29.3741 23.6073 30.642ZM23.3145 40.4067C22.0906 40.7056 21.4126 40.9482 20.4987 41.4139C18.5169 42.4243 16.1396 44.4294 13.8285 47.0402L12.4782 48.5655L11.5725 48.4959C10.0889 48.382 9.98518 48.446 7.34401 51.1063C5.32629 53.1384 5 53.5208 5 53.8529C5 54.1929 5.74596 54.9964 11.2824 60.6194C16.7197 66.1417 17.6142 67 17.9316 67C18.2395 67 18.6553 66.6394 20.5285 64.7471C23.1061 62.1435 23.3038 61.8353 23.2313 60.5323L23.1829 59.6632L23.8738 59.439C26.1295 58.7068 29.2802 58.5745 34.5937 58.9886C41.6488 59.5383 44.4157 59.2656 48.1298 57.6539C52.0118 55.9692 60.6235 50.7156 63.2773 48.4131C64.0263 47.7632 64.3233 47.4009 64.6361 46.7555C64.9908 46.0236 65.0304 45.8354 64.9845 45.102C64.9164 44.0159 64.4737 43.3364 63.5057 42.832C62.8968 42.5148 62.7103 42.4789 61.8609 42.515C60.9587 42.5534 60.8167 42.6024 59.4232 43.3557C56.1728 45.113 51.8466 47.1823 48.4736 48.5936L47.0047 49.208V48.6026C47.0047 47.7196 46.6811 46.8946 46.0592 46.1921C45.205 45.2269 44.6569 45.0474 42.1365 44.9083C38.2997 44.6962 36.0394 44.1426 31.5144 42.3067C27.5911 40.7148 26.6745 40.4477 24.9397 40.3907C24.1834 40.3659 23.452 40.373 23.3145 40.4067ZM23.7511 42.2355C22.4533 42.403 21.1213 43.0022 19.5016 44.1466C18.5286 44.8341 13.876 49.4768 13.876 49.7601C13.876 49.8474 15.7099 51.7822 17.9513 54.0599L22.0266 58.2009L22.9206 57.8493C25.528 56.8236 28.6277 56.6463 34.7009 57.1756C38.087 57.4706 42.1256 57.4733 43.551 57.1812C45.9827 56.683 47.8733 55.9049 51.3561 53.9686C56.5161 51.1 61.8654 47.544 62.7618 46.3865C63.3982 45.5645 63.3357 44.6926 62.6186 44.3909C62.0913 44.1691 61.4553 44.316 60.382 44.9076C55.844 47.4091 48.9381 50.5348 45.192 51.7827C43.0255 52.5044 42.1404 52.6508 39.9616 52.6479C36.9475 52.6439 33.7326 52.0855 31.9141 51.2499C31.3082 50.9714 31.119 50.8172 31.0524 50.5475C30.8454 49.7098 31.5013 49.1353 32.2888 49.4646C34.3199 50.3141 36.9364 50.7766 39.8164 50.7949C42.8966 50.8143 44.1687 50.4792 44.9191 49.4501C45.2277 49.0268 45.2418 48.0815 44.9463 47.6235C44.5321 46.9813 44.1331 46.8545 42.2538 46.7676C38.1514 46.578 35.5041 45.9205 30.3709 43.816C26.8637 42.3782 25.3835 42.0247 23.7511 42.2355ZM8.91381 52.0441L7.12011 53.8506L12.5296 59.3477L17.9389 64.845L19.7204 63.0249C21.3153 61.3953 21.5018 61.1593 21.5018 60.7708C21.5018 60.3686 21.1363 59.9654 16.5308 55.2872C11.9306 50.6144 11.528 50.2377 11.1337 50.2377C10.7529 50.2377 10.5167 50.4298 8.91381 52.0441Z" fill="#FFB703"/>
</svg>
