<?xml version="1.0" encoding="UTF-8"?>
<svg version="1.1" xmlns="http://www.w3.org/2000/svg" width="512" height="512">
<path d="M0 0 C0.8156543 0.18272461 1.63130859 0.36544922 2.47167969 0.55371094 C21.5754909 5.00614914 40.31980912 13.10382995 56 25 C56.81726563 25.60972656 57.63453125 26.21945313 58.4765625 26.84765625 C69.52520997 35.38843612 79.59602718 44.82238397 88 56 C88.88558594 57.16208984 88.88558594 57.16208984 89.7890625 58.34765625 C113.95485496 91.39630849 123.2388325 132.49043795 117.35498047 172.78564453 C112.27957152 204.44586404 97.50001347 231.80079499 75.72265625 255.01953125 C50.97093236 281.75139305 38.44098073 315.20632491 37.7890625 351.52734375 C37.77471664 352.28844452 37.76037079 353.04954529 37.74559021 353.83370972 C37.68831692 356.99512129 37.63365163 360.15636961 37.59863281 363.31811523 C37.36963243 382.46136256 33.70452116 398.31919801 19.8515625 412.3046875 C8.30611398 423.2175087 -4.90457848 428.10823298 -20.62109375 428.23828125 C-21.55744156 428.246353 -22.49378937 428.25442474 -23.45851135 428.26274109 C-25.44131641 428.27655069 -27.42414493 428.28728677 -29.40698242 428.29516602 C-31.41128632 428.30663025 -33.41556105 428.32699276 -35.41967773 428.35668945 C-55.92867647 428.66016228 -71.30059236 425.7638031 -86.74609375 411.28515625 C-99.56870655 398.28476026 -103.36840782 383.01646906 -103.53848267 365.2399292 C-103.57918909 361.33759503 -103.67303119 357.43655152 -103.765625 353.53515625 C-103.78297195 352.77956421 -103.80031891 352.02397217 -103.81819153 351.2454834 C-104.7737305 312.75174872 -119.08097889 278.77640326 -145.56323242 250.85522461 C-172.18378921 222.48291405 -185.82881991 183.64141541 -185.2109375 145 C-183.82699332 101.94395889 -164.31784324 63.6770448 -133.3125 34.4375 C-97.22817904 3.00556004 -46.86395681 -10.69656517 0 0 Z M-130 66 C-142.86493533 81.15756638 -151.7668323 98.87898281 -157 118 C-157.33902344 119.1859375 -157.67804688 120.371875 -158.02734375 121.59375 C-165.41550104 152.91681316 -158.80276639 186.40786821 -143 214 C-138.13568509 221.7760527 -132.53561426 228.7243982 -126.25366211 235.39331055 C-106.77762989 256.14836577 -93.09814071 280.8497801 -85.54296875 308.27734375 C-85.1420074 310.01193733 -85.1420074 310.01193733 -84 311 C-82.14630389 311.08737645 -80.28932459 311.10698153 -78.43359375 311.09765625 C-77.30888672 311.09443359 -76.18417969 311.09121094 -75.02539062 311.08789062 C-73.84138672 311.07951172 -72.65738281 311.07113281 -71.4375 311.0625 C-70.24962891 311.05798828 -69.06175781 311.05347656 -67.83789062 311.04882812 C-64.89187532 311.03699674 -61.94597033 311.01967523 -59 311 C-60.52492728 296.68900674 -62.69651026 282.49510302 -64.9140625 268.27734375 C-65.2926178 265.83545539 -65.67089878 263.39352449 -66.04891968 260.95155334 C-67.03584881 254.58090397 -68.02645863 248.21083244 -69.0178833 241.84088135 C-70.03241133 235.31809953 -71.04339209 228.79476802 -72.0546875 222.27148438 C-74.03302217 209.51378807 -76.01513193 196.75668138 -78 184 C-79.15757812 183.97421875 -80.31515625 183.9484375 -81.5078125 183.921875 C-83.04691128 183.86556651 -84.58597233 183.8082198 -86.125 183.75 C-86.88554687 183.73582031 -87.64609375 183.72164062 -88.4296875 183.70703125 C-93.68880412 183.48034519 -96.81854767 182.46500411 -101 179 C-102.85726616 175.28546768 -102.58501089 171.04420575 -102 167 C-99.80977082 164.17575712 -98.16982793 162.58491397 -95 161 C-93.36651356 160.89877217 -91.72894794 160.860559 -90.09234619 160.85282898 C-89.05491272 160.84567368 -88.01747925 160.83851837 -86.9486084 160.83114624 C-85.80573364 160.82845734 -84.66285889 160.82576843 -83.48535156 160.82299805 C-82.28525452 160.81642685 -81.08515747 160.80985565 -79.84869385 160.80308533 C-75.8626684 160.78331539 -71.87668323 160.77168124 -67.890625 160.76171875 C-66.51818573 160.7576712 -65.14574666 160.75355428 -63.7733078 160.74936867 C-57.32442731 160.73031426 -50.87555828 160.71608471 -44.42665505 160.7077567 C-36.98501414 160.69798792 -29.54367096 160.67167922 -22.10213494 160.63125581 C-16.34917966 160.60107881 -10.59630963 160.58628627 -4.84327674 160.58297569 C-1.40789826 160.58062662 2.02716225 160.57168589 5.46245575 160.54651451 C9.29765814 160.51886758 13.13247015 160.52306981 16.96777344 160.5300293 C18.66994019 160.51081421 18.66994019 160.51081421 20.40649414 160.49121094 C26.55493177 160.53192144 30.36308906 160.79428931 35 165 C36.85726616 168.71453232 36.58501089 172.95579425 36 177 C33.80977082 179.82424288 32.16982793 181.41508603 29 183 C26.12089412 183.23274209 23.25853505 183.41972757 20.375 183.5625 C19.57320312 183.60568359 18.77140625 183.64886719 17.9453125 183.69335938 C15.9637489 183.79951457 13.98189729 183.90026855 12 184 C9.51903603 199.96755758 7.04152305 215.93564618 4.56812286 231.90437698 C3.41961398 239.31883106 2.2699743 246.73310651 1.11767578 254.14697266 C0.11339777 260.60849664 -0.88876196 267.07034498 -1.88837385 273.53259254 C-2.41778751 276.95463247 -2.94826422 280.37649999 -3.48127747 283.79798126 C-4.07609329 287.61644203 -4.66617987 291.4356253 -5.25585938 295.25488281 C-5.43352341 296.39064255 -5.61118744 297.52640228 -5.79423523 298.69657898 C-5.95410416 299.73701859 -6.11397308 300.77745819 -6.27868652 301.84942627 C-6.41879906 302.75278339 -6.55891159 303.65614052 -6.70326996 304.5868721 C-7.08136379 307.2564658 -7.08136379 307.2564658 -7 311 C1.25 311 9.5 311 18 311 C19.155 307.390625 20.31 303.78125 21.5 300.0625 C29.96735236 274.44408578 43.00904649 254.00303917 61.46875 234.375 C77.02891762 217.71904593 87.15359086 197.20461504 92 175 C92.18401367 174.18523193 92.36802734 173.37046387 92.55761719 172.53100586 C94.1350059 164.87251657 94.38647303 157.36665399 94.375 149.5625 C94.37368576 148.5771376 94.37368576 148.5771376 94.37234497 147.5718689 C94.24153504 117.69334239 84.18948971 88.37310474 64 66 C63.29359375 65.16339844 62.5871875 64.32679688 61.859375 63.46484375 C41.17614217 39.39640554 10.3331456 24.3248639 -21.12109375 21.24609375 C-63.04072958 18.58653981 -101.94692992 34.48896722 -130 66 Z M-54 184 C-51.83643669 198.33308325 -51.83643669 198.33308325 -49.671875 212.66601562 C-48.78322258 218.54886334 -47.8946635 224.431725 -47.00683594 230.31469727 C-45.29418602 241.66238455 -43.57758748 253.00946406 -41.85583496 264.35577393 C-41.27865704 268.16004559 -40.70302133 271.96454628 -40.12854004 275.76922607 C-39.43155517 280.38424555 -38.73119724 284.99874112 -38.02832413 289.61286736 C-37.76640346 291.33598078 -37.50565278 293.0592725 -37.24612045 294.78274727 C-36.8900472 297.14593957 -36.52979438 299.50845736 -36.16845703 301.87084961 C-36.06422047 302.56922628 -35.9599839 303.26760296 -35.85258865 303.98714256 C-35.30678178 307.60576829 -35.30678178 307.60576829 -34 311 C-33.34 311 -32.68 311 -32 311 C-30.38744333 304.11907421 -29.18230457 297.23936079 -28.12060547 290.25390625 C-27.94474915 289.11303055 -27.76889282 287.97215485 -27.58770752 286.79670715 C-27.01130812 283.05240949 -26.43918954 279.30747173 -25.8671875 275.5625 C-25.46672268 272.9545528 -25.06601314 270.34664317 -24.66506958 267.73876953 C-23.82761336 262.28887899 -22.99237443 256.83865255 -22.15869141 251.38818359 C-21.08753614 244.38521841 -20.01289523 237.38279287 -18.93710136 230.38053894 C-17.91261529 223.71220717 -16.88985755 217.0436105 -15.8671875 210.375 C-15.57276575 208.45616501 -15.57276575 208.45616501 -15.27239609 206.49856567 C-14.72097483 202.90281524 -14.17060523 199.3069056 -13.62060547 195.7109375 C-13.45543427 194.63463577 -13.29026306 193.55833405 -13.12008667 192.44941711 C-12.97152222 191.47659286 -12.82295776 190.50376862 -12.66989136 189.50146484 C-12.5397508 188.65127777 -12.40961025 187.8010907 -12.27552605 186.92514038 C-11.97638728 185.15914067 -11.97638728 185.15914067 -12 184 C-25.86 184 -39.72 184 -54 184 Z M-80 335 C-79.67 342.59 -79.34 350.18 -79 358 C-48.64 358 -18.28 358 13 358 C13.33 350.41 13.66 342.82 14 335 C-17.02 335 -48.04 335 -80 335 Z M-76 382 C-72.8804172 391.35874841 -66.80863934 397.5098819 -58 402 C-52.88901308 403.7184998 -48.18397638 404.31930816 -42.828125 404.3359375 C-41.68352814 404.3459227 -41.68352814 404.3459227 -40.51580811 404.35610962 C-38.90900053 404.36618011 -37.3021516 404.37092839 -35.6953125 404.37060547 C-33.27011069 404.37496386 -30.84675402 404.41129924 -28.421875 404.44921875 C-15.30264594 404.54701595 -5.87043626 402.72821443 3.89453125 393.3203125 C6.79948576 390.11893406 10 386.53320561 10 382 C-18.38 382 -46.76 382 -76 382 Z " fill="#000000" transform="translate(289,84)"/>
<path d="M0 0 C3.12578143 1.6720747 5.39281175 3.7856235 7 7 C7.34375 9.1015625 7.34375 9.1015625 7.5 11.625 C7.60828125 12.85089844 7.60828125 12.85089844 7.71875 14.1015625 C4.9223666 25.37828252 -10.73014679 36.07048814 -18.88745117 44.29248047 C-20.92732551 46.35025059 -22.9583114 48.41623178 -24.98217773 50.48974609 C-27.44728084 53.0151932 -29.92693646 55.5254548 -32.41754341 58.02574539 C-33.80989693 59.43071924 -35.18747909 60.85028294 -36.56468201 62.27011108 C-41.52802779 67.21740161 -44.92042709 70.26774744 -52 71 C-57.03587903 70.11131547 -59.87360618 68.0196492 -63 64 C-64.42535111 59.18943999 -64.01956518 56.29055761 -61.96321297 51.75777817 C-60.44215117 48.98197541 -58.43090762 46.94563306 -56.19311523 44.72314453 C-55.71796478 44.24580368 -55.24281433 43.76846283 -54.75326538 43.2766571 C-53.19780814 41.71890908 -51.62863445 40.17584908 -50.05859375 38.6328125 C-48.96827831 37.54742603 -47.87877744 36.46122074 -46.79005432 35.37423706 C-44.51551012 33.10730565 -42.23468904 30.84696935 -39.94848633 28.59179688 C-37.01540775 25.69845665 -34.09335105 22.7943003 -31.17524624 19.88586617 C-28.38988624 17.11046289 -25.59958898 14.34004713 -22.80859375 11.5703125 C-22.27589811 11.04101261 -21.74320248 10.51171272 -21.19436455 9.96637344 C-19.69143271 8.47499078 -18.18508456 6.98715582 -16.67749023 5.50048828 C-15.39200539 4.22976974 -15.39200539 4.22976974 -14.08055115 2.93338013 C-9.9489602 -0.90595631 -5.41787722 -0.76331501 0 0 Z " fill="#000000" transform="translate(447,58)"/>
<path d="M0 0 C0.81726563 -0.0721875 1.63453125 -0.144375 2.4765625 -0.21875 C13.75328252 2.5776334 24.44548814 18.23014679 32.66748047 26.38745117 C34.72525059 28.42732551 36.79123178 30.4583114 38.86474609 32.48217773 C41.3901932 34.94728084 43.9004548 37.42693646 46.40074539 39.91754341 C47.80571924 41.30989693 49.22528294 42.68747909 50.64511108 44.06468201 C55.59240161 49.02802779 58.64274744 52.42042709 59.375 59.5 C58.4854681 64.54068077 56.35888426 67.33100116 52.375 70.5 C47.51139516 72.0859581 44.11826995 71.1977998 39.375 69.5 C36.64175415 67.37475586 36.64175415 67.37475586 34.00634766 64.71484375 C33.51925323 64.23008575 33.03215881 63.74532776 32.53030396 63.24588013 C30.93761722 61.65479677 29.36342198 60.04670276 27.7890625 58.4375 C26.68147535 57.32311777 25.57284644 56.20977007 24.46322632 55.09741211 C21.55561444 52.17642909 18.66374837 49.24031495 15.77453613 46.30114746 C13.4080456 43.89916852 11.03034451 41.50846104 8.65201759 39.11820984 C5.81877173 36.27019552 2.99078431 33.416988 0.1640625 30.5625 C-0.37631023 30.01721649 -0.91668297 29.47193298 -1.47343063 28.91012573 C-2.99605462 27.37125909 -4.51502505 25.82888759 -6.03271484 24.28515625 C-6.89762543 23.40738525 -7.76253601 22.52961426 -8.65365601 21.62524414 C-12.08182877 17.92943859 -12.01268099 14.94064173 -11.984375 10.05078125 C-11.40539966 5.94131496 -9.62585071 4.28650423 -6.625 1.5 C-4.28486288 0.32993144 -2.61042048 0.16163594 0 0 Z " fill="#000000" transform="translate(69.625,57.5)"/>
<path d="M0 0 C3.61984803 1.89334737 5.68828756 4.06486269 7 8 C7.10752054 9.73179971 7.1587256 11.46735457 7.17700195 13.20239258 C7.18983719 14.26392044 7.20267242 15.3254483 7.21589661 16.41914368 C7.22328354 17.56602158 7.23067047 18.71289948 7.23828125 19.89453125 C7.25038887 21.66469856 7.25038887 21.66469856 7.26274109 23.47062683 C7.27657914 25.96974214 7.28730254 28.46887633 7.29516602 30.96801758 C7.31238496 34.78698559 7.35627612 38.60508939 7.40039062 42.42382812 C7.41051705 44.85155613 7.41903331 47.2792915 7.42578125 49.70703125 C7.44328934 50.84783646 7.46079742 51.98864166 7.47883606 53.16401672 C7.46178622 59.40558037 7.2975483 63.31304556 3 68 C-1.2432447 70.8288298 -5.01734529 70.65268001 -10 70 C-13.64781295 67.87210911 -15.42770243 65.86412114 -17 62 C-17.26069641 59.50257874 -17.26069641 59.50257874 -17.2746582 56.66821289 C-17.28419022 55.60353287 -17.29372223 54.53885284 -17.30354309 53.44190979 C-17.30263168 52.29705612 -17.30172028 51.15220245 -17.30078125 49.97265625 C-17.30506638 48.79158798 -17.3093515 47.61051971 -17.31376648 46.3936615 C-17.31950864 43.89631796 -17.32001089 41.3989577 -17.31567383 38.90161133 C-17.31251496 35.08060168 -17.33597189 31.26036698 -17.36132812 27.43945312 C-17.36360122 25.01302181 -17.36430457 22.58658841 -17.36328125 20.16015625 C-17.372491 19.01732681 -17.38170074 17.87449738 -17.39118958 16.69703674 C-17.38496078 15.62920456 -17.37873199 14.56137238 -17.37231445 13.46118164 C-17.37294388 12.52504532 -17.3735733 11.588909 -17.3742218 10.62440491 C-16.80384861 6.62439692 -15.02084605 3.96577967 -12.1171875 1.21875 C-8.26748145 -0.99731695 -4.29032822 -0.73645004 0 0 Z " fill="#000000" transform="translate(261,0)"/>
<path d="M0 0 C1.59229179 -0.01925285 1.59229179 -0.01925285 3.2167511 -0.03889465 C4.93706795 -0.04997505 4.93706795 -0.04997505 6.69213867 -0.0612793 C8.46230598 -0.07338692 8.46230598 -0.07338692 10.26823425 -0.08573914 C12.76734956 -0.09957719 15.26648375 -0.11030059 17.765625 -0.11816406 C21.58459301 -0.13538301 25.40269681 -0.17927417 29.22143555 -0.22338867 C31.64916356 -0.2335151 34.07689892 -0.24203136 36.50463867 -0.2487793 C37.64544388 -0.26628738 38.78624908 -0.28379547 39.96162415 -0.30183411 C46.21332716 -0.28475656 50.06819332 -0.07314359 54.79760742 4.17700195 C57.14541883 7.16512557 57.21585823 10.39611383 57.11791992 14.14575195 C56.58404606 17.53129353 54.99034644 19.61880643 52.79760742 22.17700195 C49.64653008 24.17654966 47.16314075 24.43344754 43.46582031 24.45166016 C41.86880028 24.46595818 41.86880028 24.46595818 40.23951721 24.48054504 C39.09466354 24.47963364 37.94980988 24.47872223 36.77026367 24.4777832 C35.5891954 24.48206833 34.40812714 24.48635345 33.19126892 24.49076843 C30.69392538 24.49651059 28.19656512 24.49701285 25.69921875 24.49267578 C21.8782091 24.48951692 18.0579744 24.51297384 14.23706055 24.53833008 C11.81062923 24.54060317 9.38419584 24.54130652 6.95776367 24.5402832 C5.81493423 24.54949295 4.6721048 24.5587027 3.49464417 24.56819153 C2.42681198 24.56196274 1.3589798 24.55573395 0.25878906 24.54931641 C-1.14541542 24.55026054 -1.14541542 24.55026054 -2.57798767 24.55122375 C-6.54117309 23.98610121 -9.20082661 22.21433814 -11.95239258 19.36450195 C-13.59182503 16.49549516 -14.07238275 14.49225254 -14.20239258 11.17700195 C-12.86375359 7.22801694 -11.6112618 3.73365387 -8.20239258 1.17700195 C-5.19783639 0.17548322 -3.14211102 0.03309802 0 0 Z " fill="#000000" transform="translate(432.202392578125,243.822998046875)"/>
<path d="M0 0 C1.06468002 -0.00953201 2.12936005 -0.01906403 3.2263031 -0.02888489 C4.37115677 -0.02797348 5.51601044 -0.02706207 6.69555664 -0.02612305 C7.87662491 -0.03040817 9.05769318 -0.0346933 10.27455139 -0.03910828 C12.77189493 -0.04485043 15.26925519 -0.04535269 17.76660156 -0.04101562 C21.58761121 -0.03785676 25.40784591 -0.06131369 29.22875977 -0.08666992 C31.65519108 -0.08894301 34.08162448 -0.08964637 36.50805664 -0.08862305 C37.65088608 -0.09783279 38.79371552 -0.10704254 39.97117615 -0.11653137 C41.03900833 -0.11030258 42.10684052 -0.10407379 43.20703125 -0.09765625 C44.61123573 -0.09860039 44.61123573 -0.09860039 46.04380798 -0.0995636 C50.00699341 0.46555895 52.66664692 2.23732202 55.41821289 5.0871582 C57.05764534 7.95616499 57.53820306 9.95940761 57.66821289 13.2746582 C56.3295739 17.22364322 55.07708211 20.71800629 51.66821289 23.2746582 C48.6636567 24.27617693 46.60793133 24.41856214 43.46582031 24.45166016 C42.40429245 24.46449539 41.34276459 24.47733063 40.24906921 24.49055481 C38.52875237 24.50163521 38.52875237 24.50163521 36.77368164 24.51293945 C35.5935701 24.5210112 34.41345856 24.52908295 33.19758606 24.53739929 C30.69847075 24.55123735 28.19933656 24.56196074 25.70019531 24.56982422 C21.8812273 24.58704316 18.0631235 24.63093432 14.24438477 24.67504883 C11.81665676 24.68517525 9.38892139 24.69369151 6.96118164 24.70043945 C5.82037643 24.71794754 4.67957123 24.73545563 3.50419617 24.75349426 C-2.74750685 24.73641672 -6.60237301 24.52480375 -11.33178711 20.2746582 C-13.67959852 17.28653459 -13.75003792 14.05554633 -13.65209961 10.3059082 C-13.11822575 6.92036662 -11.52452613 4.83285372 -9.33178711 2.2746582 C-6.18070977 0.2751105 -3.69732043 0.01821262 0 0 Z " fill="#000000" transform="translate(36.331787109375,243.725341796875)"/>
</svg>
